<svg width="130" height="159" fill="none" xmlns="http://www.w3.org/2000/svg"><path d="M87.1 33.3c8.2 0 15-5.6 17-13l5.4.7h.3a2.2 2.2 0 0 0 .3-4.2l-5.5-.9v-.6s-.5-6.6-1-9.3c-.7-2.7-2.6-3.3-2.6-3.3C91.2.5 81.2.3 78.6.3c-2.6 0-3.2 1.3-3.2 1.3l-3.1 5-.2.4a17.5 17.5 0 0 0 15.1 26.2ZM125.5 72.6l-26.7-2.2-9.3-21.1s-.4-2.8-6-8.5c-5.5-5.7-16.8-3.4-16.8-3.4S43 42 35 43.7c-7.9 1.9-8.2 10-8.2 10l-.6 4.4-15.2-3a3 3 0 0 0-3.5 2.5L.1 95.8a3 3 0 0 0 2.4 3.5l51.2 10h.3-1.3l-9.4-2-3 17.2-23.6 20.4a7.4 7.4 0 1 0 9.8 11l29.6-23.5c1.9-1.6 2.8-3.9 2.8-3.9s4.5-14 5.8-16.9c.8-2 4.9-1 4.9-1l22.9 8.6 7.6 29c0 .7.2 1.3.5 1.8a7.4 7.4 0 0 0 14-4.5c-.8-5-4.5-27-5.5-31.8-1-5.4-4.6-7-4.6-7L81.8 94.5c-1.3-.7-1-2.7-1-2.7l3.9-14.4 2.8 5.9s1.6 3.3 4 3.4l33.4.8a7.4 7.4 0 0 0 .6-14.8ZM54.1 57.3l-1.8 5.9 10 2-20.3-4 .5-2.5 11.6-1.4Zm-2.2 45.5L6.6 94l6.2-32.4 12.6 2.5-1.7 11.5-.6 4.5v1.2a7.4 7.4 0 1 0 14.7-1l3-13.3L58 70.5 52 102.8ZM19 11.5h38a2 2 0 0 0 2-2c0-1-.8-2-2-2H19a2 2 0 0 0-2 2c0 1.1 1 2 2 2ZM32 17.5a2 2 0 0 0-2 2c0 1.1 1 2 2 2h23a2 2 0 0 0 2-2 2 2 0 0 0-2-2H32Z" fill="#fff"/></svg>