<svg width="133" height="159" viewBox="0 0 133 159" fill="none" xmlns="http://www.w3.org/2000/svg">
<path d="M87.0981 33.2319C95.2191 33.2319 102.043 27.6899 103.998 20.1829L109.465 20.9969C109.572 21.0129 109.68 21.0209 109.785 21.0209C110.836 21.0209 111.756 20.2509 111.916 19.1809C112.092 18.0029 111.277 16.9049 110.1 16.7299L104.559 15.9049C104.561 15.8589 104.563 15.8139 104.563 15.7669C104.563 15.5849 104.557 15.4049 104.549 15.2249C104.549 15.2249 104.098 8.70691 103.475 5.98791C102.854 3.26891 100.94 2.69191 100.94 2.69191C91.1701 0.479906 81.1681 0.253906 78.5641 0.253906C75.9601 0.253906 75.4061 1.58591 75.4061 1.58591L72.2561 6.58191L72.2461 6.57891C72.1701 6.69991 72.1001 6.82391 72.0271 6.94691L72.0001 6.98991C70.4981 9.56991 69.6331 12.5659 69.6331 15.7669C69.6331 25.4129 77.4531 33.2319 87.0981 33.2319Z" fill="#3A3A3A"/>
<path d="M125.5 72.5411V72.5391L98.7579 70.3711L89.5119 49.2591C89.5119 49.2591 89.0509 46.4851 83.5039 40.7831C77.9549 35.0811 66.7049 37.3931 66.7049 37.3931C66.7049 37.3931 42.8189 41.8621 34.9599 43.7101C27.0999 45.5601 26.7919 53.5731 26.7919 53.5731L23.7099 75.6091L23.0699 80.0151C23.0649 80.0411 23.0619 80.0711 23.0579 80.0971L23.0399 80.2241H23.0419C23.0019 80.5361 22.9789 80.8531 22.9789 81.1751C22.9789 85.2791 26.3059 88.6041 30.4089 88.6041C34.5119 88.6041 37.8379 85.2791 37.8379 81.1751C37.8379 80.8571 37.8169 80.5451 37.7769 80.2381L42.5109 58.6571L54.0679 57.2711L52.2789 63.1511L62.1769 65.0701C63.7969 65.3831 64.8649 66.9661 64.5519 68.5871L57.1399 106.83C56.8629 108.26 55.5989 109.26 54.1919 109.26C54.1199 109.26 54.0459 109.244 53.9719 109.239C53.2439 109.343 52.6809 109.204 52.6809 109.204L43.2809 107.355L40.1989 124.46L16.6389 144.823C14.9379 146.184 13.8469 148.276 13.8469 150.624C13.8469 154.728 17.1729 158.054 21.2759 158.054C23.3109 158.054 25.1539 157.236 26.4959 155.909C26.4959 155.909 54.2209 133.859 56.0709 132.318C57.9209 130.778 58.8439 128.465 58.8439 128.465C58.8439 128.465 63.3849 114.517 64.6229 111.591C65.4709 109.587 69.5549 110.512 69.5549 110.512L92.4399 119.143L100.055 148.205C100.137 148.835 100.297 149.439 100.528 150.009H100.53C101.628 152.737 104.3 154.663 107.419 154.663C111.523 154.663 114.849 151.336 114.849 147.233C114.849 146.634 114.777 146.054 114.642 145.497C113.8 140.532 110.038 118.451 109.081 113.671C108.003 108.277 104.46 106.737 104.46 106.737C104.46 106.737 83.1929 95.1821 81.8069 94.4101C80.4199 93.6401 80.7289 91.6361 80.7289 91.6361L84.6589 77.3051L87.4319 83.1611C87.4319 83.1611 89.0509 86.4351 91.5159 86.5521L124.873 87.3721C128.977 87.3721 132.303 84.0461 132.303 79.9411C132.303 76.0511 129.311 72.8601 125.5 72.5411Z" fill="#3A3A3A"/>
<path d="M53.9708 109.644H53.9728C54.0458 109.65 54.1198 109.665 54.1928 109.665C55.5998 109.665 56.8638 108.665 57.1408 107.235L64.5528 68.992C64.8658 67.371 63.7978 65.789 62.1778 65.475L41.9638 61.558L40.6778 67.42L58.0908 70.794L51.8198 103.148L6.51579 94.369L12.7858 62.016L25.3278 64.447L26.1598 58.497L10.9818 55.555C10.7908 55.518 10.6008 55.5 10.4138 55.5C9.00679 55.5 7.74279 56.5 7.46579 57.929L0.0547894 96.173C-0.259211 97.793 0.808789 99.375 2.42979 99.689L53.6258 109.612C53.7398 109.634 53.8548 109.635 53.9708 109.644Z" fill="#F0C42E"/>
<path d="M59.0419 9.48194C59.0419 10.5769 58.1419 11.4719 57.0419 11.4719H19.0149C17.9149 11.4719 17.0149 10.5759 17.0149 9.48194C17.0149 8.38794 17.9149 7.49194 19.0149 7.49194H57.0419C58.1419 7.49294 59.0419 8.38794 59.0419 9.48194Z" fill="#F0C52E"/>
<path d="M57.0039 19.48C57.0039 20.574 56.1039 21.47 55.0039 21.47H32.0439C30.9439 21.47 30.0439 20.574 30.0439 19.48C30.0439 18.385 30.9439 17.49 32.0439 17.49H55.0029C56.1039 17.49 57.0039 18.386 57.0039 19.48Z" fill="#F0C52E"/>
</svg>
