<svg width="16" height="11" viewBox="0 0 16 11" fill="none" xmlns="http://www.w3.org/2000/svg"><path d="M15.6671 1.67464c-.0906-.32318-.2671-.61577-.5107-.846667a2.033642 2.033642 0 0 0-.892-.494667c-1.252-.33-6.26799-.33-6.26799-.33a51.082775 51.082775 0 0 0-6.26.313333 2.106645 2.106645 0 0 0-.891999.506667c-.246666.237334-.425333.530004-.518666.850664a19.393328 19.393328 0 0 0-.325334 3.66267c-.008 1.22733.100667 2.45333.325334 3.66267.091333.31933.269333.61066.516666.846.247329.23529.555329.40529.893999.49529 1.26867.3294 6.26.3294 6.26.3294 2.09379.0238 4.18709-.0808 6.26799-.3134.3345-.0864.6415-.2566.892-.49463.2435-.23085.4198-.52348.51-.84666.2301-1.20737.3419-2.43428.334-3.66334a17.720817 17.720817 0 0 0-.3333-3.678v.00067ZM6.40174 7.61931V3.05464l4.17336 2.28267-4.17336 2.282Z" fill="#444"/></svg>