<svg width="102" height="133" fill="none" xmlns="http://www.w3.org/2000/svg"><path d="M87.25 30.33a14.75 14.75 0 1 0 0-29.5 14.75 14.75 0 0 0 0 29.5ZM33.88 86.25l-7.08 17.88-22.82 14.91a7.16 7.16 0 1 0 7.65 12.09c3.76-2.37 22.35-14.08 25.5-15.88 3.5-2 4.12-5.13 4.12-5.13l4.88-16-5.76-2.62c-5.74-2.63-6.5-5.25-6.5-5.25ZM84.08 88.17S82.92 84.33 79.5 83s-18.08-7.75-18.08-7.75l15.41-25.58s3.84-9-.33-13.42-13.75-9.75-13.75-9.75H36L16.09 40.93a7.2 7.2 0 0 0-1.23.89l-.04.02a7.17 7.17 0 0 0 8.96 11.14l.08-.05.52-.43 14.75-11.88H55L40.25 66.83s-5.13 9.22-.33 14.25C44.12 85.5 52.58 88 52.58 88l17.25 6.5 5.1 31.29h.01a7.16 7.16 0 0 0 14.2-1.7h.04l-5.1-35.92Z" fill="#3A3A3A"/></svg>