<svg width="149" height="181" fill="none" xmlns="http://www.w3.org/2000/svg"><path d="M134.25 78.13a14.75 14.75 0 1 0 0-29.5 14.75 14.75 0 0 0 0 29.5ZM82.11 134.04l-7.07 17.88-22.82 14.92a7.16 7.16 0 1 0 7.65 12.08c3.76-2.37 22.35-14.08 25.5-15.88 3.5-2 4.12-5.12 4.12-5.12l4.87-16-5.75-2.63c-5.75-2.62-6.5-5.25-6.5-5.25Z" fill="#fff"/><path d="M132.32 135.96s-1.16-3.83-4.58-5.17c-3.42-1.33-18.08-7.74-18.08-7.74l15.41-25.59s3.84-9-.33-13.42c-4.17-4.41-13.75-9.75-13.75-9.75h-7.52l15.8-26.8a12.03 12.03 0 0 0-4.25-16.43L65.63 1.95A12.03 12.03 0 0 0 49.2 6.19L2.14 86.02a12.04 12.04 0 0 0 4.25 16.43l49.39 29.11a12.04 12.04 0 0 0 16.43-4.24l22.93-38.9h8.1l-14.75 26.2s-5.13 9.22-.33 14.26c4.2 4.41 12.66 6.91 12.66 6.91l17.25 6.5 5.1 31.3h.01a7.16 7.16 0 0 0 14.2-1.7l.04-.01-5.1-35.92ZM10.96 94.7a3.04 3.04 0 0 1-1.06-4.11l47.06-79.83a3.04 3.04 0 0 1 4.1-1.06l11.52 6.8-50.1 84.99-11.52-6.8Zm53.5 28.05a3.04 3.04 0 0 1-4.11 1.06l-30.12-17.75 50.11-85 30.11 17.76c1.4.82 1.89 2.7 1.06 4.1L93.03 74.3h-8.78L64.32 88.72c-.44.25-.85.56-1.23.9l-.03.02a7.17 7.17 0 0 0 8.96 11.14l.08-.06c.18-.13.35-.27.52-.42l9.66-7.78-17.82 30.23Z" fill="#fff"/></svg>