<svg width="76" height="75" viewBox="0 0 76 75" fill="none" xmlns="http://www.w3.org/2000/svg">
<path d="M17.9209 26.0251L27.1579 36.3071L30.6979 32.7661L17.4129 17.9761L14.6779 21.9251L7.40189 11.3011L12.1339 6.56915L22.7589 13.8451L18.8089 16.5791L33.5999 29.8651L37.1409 26.3241L26.8579 17.0881L31.5749 13.8221L11.5329 0.0981445L0.931885 10.7011L14.6559 30.7421L17.9209 26.0251Z" fill="#3A3A3A"/>
<path d="M56.147 35.2801C54.734 35.1341 53.507 34.9241 52.63 34.7461L50.596 36.7991L69.302 55.5051C69.762 56.0971 72.399 59.7921 69.386 63.0771L63.908 68.5531C60.66 71.5331 57.007 68.9851 56.332 68.4661L37.69 49.8211L36.127 51.3991C36.372 52.4691 36.632 54.0291 36.682 55.8841L52.899 72.1021L53.072 72.2601C54.593 73.5201 57.39 74.9851 60.522 74.9851C62.75 74.9851 65.147 74.2441 67.375 72.1611L72.893 66.6451L72.9949 66.5421C78.0069 61.1841 75.2519 54.8431 73.0939 52.2391L56.147 35.2801Z" fill="#3A3A3A"/>
</svg>
