<svg width="132" height="158" fill="none" xmlns="http://www.w3.org/2000/svg"><path d="M66.023 7c32.49 0 58.922 26.432 58.922 58.922 0 4.508-.529 9.05-1.573 13.5l-.006.027-.007.027-.029.13c-.038.17-.076.339-.118.515-.094.376-.191.751-.302 1.161l-.103.4c-.026.108-.054.216-.083.324-5.564 20.056-18.52 37.7-38.506 52.442a143.412 143.412 0 0 1-19.719 12.175V125.121l-6.104-.788C29.152 120.556 7.101 95.444 7.101 65.921 7.102 33.432 33.534 7 66.023 7Zm0-7C29.616 0 .103 29.514.103 65.922c0 33.517 25.02 61.172 57.397 65.354V157.5s57.439-21.243 71.97-73.622c.078-.283.138-.538.21-.812.114-.424.225-.85.331-1.277.063-.263.119-.514.177-.769a66.014 66.014 0 0 0 1.758-15.098C131.945 29.514 102.432 0 66.023 0Z" fill="#3A3A3A"/></svg>