<svg width="78" height="78" viewBox="0 0 78 78" fill="none" xmlns="http://www.w3.org/2000/svg">
<path d="M18.443 77.5401C14.991 77.5401 12.378 76.9421 12.268 76.9171C11.387 76.7121 10.685 76.0481 10.433 75.1801C10.181 74.3121 10.416 73.3741 11.05 72.7301L18.434 65.2141C17.397 61.3691 15.098 59.8571 13.775 59.2891L5.48004 66.5481C4.86004 67.0901 4.01204 67.2921 3.21604 67.0891C2.41804 66.8861 1.77204 66.3021 1.48704 65.5301C-2.36096 55.0731 3.96704 47.2371 4.23804 46.9081C7.96404 42.7231 12.771 40.5491 18.2 40.5491C20.98 40.5491 23.362 41.1231 24.863 41.6011L41.629 24.8361C40.616 21.4061 39.172 13.3021 45.172 6.36508C48.315 2.73108 52.465 0.809082 57.174 0.809082C62.011 0.809082 65.838 2.83808 65.999 2.92508C66.254 3.06208 66.483 3.24208 66.676 3.45808L66.862 3.66508C67.752 4.65808 67.707 6.17308 66.758 7.11108L59.955 13.8401C60.744 16.7191 62.983 18.3751 64.42 19.1701L72.642 11.7671C73.296 11.1771 74.214 10.9751 75.055 11.2371C75.897 11.4981 76.538 12.1821 76.745 13.0391C78.868 21.8481 77.223 28.6451 71.712 33.8221C69.142 36.2361 65.359 37.4601 60.47 37.4601C57.681 37.4601 55.146 37.0531 53.631 36.7461L37.127 53.3991C37.856 56.5801 38.758 64.0191 33.688 70.9731C30.555 75.2691 25.283 77.5401 18.443 77.5401ZM18.247 72.5391C21.898 72.5541 26.878 71.8251 29.647 68.0271C34.591 61.2461 32.085 53.8131 31.976 53.5001C31.663 52.5981 31.885 51.5851 32.558 50.9071L51.058 32.2401C51.692 31.6011 52.622 31.3511 53.488 31.5871C53.518 31.5951 56.781 32.4601 60.47 32.4601C62.928 32.4601 66.281 32.0641 68.288 30.1771C71.576 27.0891 72.969 23.3991 72.597 18.5351L66.548 23.9821C65.876 24.5861 64.931 24.7811 64.075 24.4931C63.737 24.3791 55.78 21.6021 54.768 13.3021C54.674 12.5341 54.941 11.7661 55.492 11.2221L60.539 6.22908C59.558 5.99108 58.404 5.80808 57.174 5.80808C53.915 5.80808 51.15 7.09608 48.953 9.63408C43.302 16.1701 46.761 24.4271 46.796 24.5101C47.201 25.4501 46.992 26.5431 46.268 27.2661L27.268 46.2661C26.527 47.0081 25.403 47.2061 24.451 46.7671C24.433 46.7591 21.716 45.5471 18.201 45.5471C14.203 45.5471 10.797 47.0831 8.07604 50.1131C7.72904 50.5551 4.79404 54.4851 5.31704 60.0451L11.521 54.6171C12.077 54.1311 12.819 53.9171 13.548 54.0281C13.885 54.0801 21.839 55.4171 23.63 65.5641C23.771 66.3601 23.518 67.1741 22.951 67.7511L18.247 72.5391Z" fill="#F0C42E"/>
</svg>
