<svg width="74" height="86" viewBox="0 0 74 86" fill="none" xmlns="http://www.w3.org/2000/svg">
<path d="M54.583 85.9976C51.792 85.9976 44.5939 85.3776 38.0289 79.6336C37.3149 79.0086 36.3229 78.2296 35.1749 77.3276C25.749 69.9216 6.13395 54.5106 -0.278051 18.7846L-0.352051 18.3756L-0.328051 17.9616C-0.284051 17.2096 0.41795 10.3976 11.3029 2.64864C12.1799 2.03164 15.2099 0.0566406 18.0589 0.0566406C19.7669 0.0566406 21.2529 0.744644 22.2429 1.99464C24.0469 4.27164 36.909 20.4926 36.909 20.4926L37.1279 20.8036C38.3339 22.7186 38.975 26.5176 35.882 29.2346L29.9889 35.1276C29.8139 37.2396 29.791 42.3876 33.075 46.2266C36.767 50.5436 40.5819 52.0156 42.3549 52.4946L47.841 49.7516C48.517 49.3686 50.793 48.1986 53.353 48.1986C55.639 48.1986 57.6249 49.1496 58.9459 50.8766C61.0599 53.6406 71.4499 66.5066 71.5549 66.6366L71.7099 66.8436C72.8249 68.4526 74.0429 71.9926 71.5419 75.0516C70.0949 76.8206 65.0369 82.7516 60.6699 84.8296C59.0629 85.5926 56.958 85.9966 54.583 85.9976ZM6.71995 18.1396C12.7709 50.8226 30.806 64.9936 39.5 71.8236C40.726 72.7876 41.785 73.6196 42.639 74.3666C47.551 78.6646 53.023 78.9986 54.583 78.9986C56.094 78.9986 57.165 78.7446 57.664 78.5076C59.774 77.5026 63.3859 73.9286 65.9479 70.8336C65.9469 70.8306 65.9449 70.8276 65.9439 70.8236C64.5499 69.0966 55.593 57.9996 53.444 55.1996C53.421 55.1976 53.3909 55.1966 53.3559 55.1966C52.6199 55.1966 51.566 55.6776 51.285 55.8446L51.067 55.9626L43.423 59.7856L42.341 59.6316C41.008 59.4426 34.0439 58.1236 27.7579 50.7756C21.3199 43.2486 23.1499 33.2606 23.2309 32.8386L23.4339 31.7836L30.9619 24.2566C28.8699 21.6176 20.2909 10.7986 17.4599 7.22664C16.8489 7.46364 15.9929 7.91464 15.3409 8.36864C8.54795 13.2016 7.00795 17.1606 6.71995 18.1396Z" fill="#3A3A3A"/>
</svg>
